<?xml version="1.0" encoding="UTF-8" standalone="no"?>
<svg
   xmlns:dc="http://purl.org/dc/elements/1.1/"
   xmlns:cc="http://creativecommons.org/ns#"
   xmlns:rdf="http://www.w3.org/1999/02/22-rdf-syntax-ns#"
   xmlns:svg="http://www.w3.org/2000/svg"
   xmlns="http://www.w3.org/2000/svg"
   xmlns:sodipodi="http://sodipodi.sourceforge.net/DTD/sodipodi-0.dtd"
   xmlns:inkscape="http://www.inkscape.org/namespaces/inkscape"
   inkscape:version="1.0beta2 (2b71d25, 2019-12-03)"
   sodipodi:docname="charity_icon_3.svg"
   xml:space="preserve"
   enable-background="new 0 0 1400 980"
   viewBox="0 0 70 59.999999"
   height="60"
   width="70"
   y="0px"
   x="0px"
   id="Layer_1"
   version="1.0"><metadata
   id="metadata1012"><rdf:RDF><cc:Work
       rdf:about=""><dc:format>image/svg+xml</dc:format><dc:type
         rdf:resource="http://purl.org/dc/dcmitype/StillImage" /><dc:title></dc:title></cc:Work></rdf:RDF></metadata><defs
   id="defs1010" /><sodipodi:namedview
   showguides="false"
   inkscape:current-layer="Layer_1"
   inkscape:window-maximized="0"
   inkscape:window-y="46"
   inkscape:window-x="96"
   inkscape:cy="95.199997"
   inkscape:cx="105.57314"
   inkscape:zoom="2.5778761"
   fit-margin-bottom="0"
   fit-margin-right="0"
   fit-margin-left="0"
   fit-margin-top="0"
   showgrid="false"
   id="namedview1008"
   inkscape:window-height="694"
   inkscape:window-width="1113"
   inkscape:pageshadow="2"
   inkscape:pageopacity="0"
   guidetolerance="10"
   gridtolerance="10"
   objecttolerance="10"
   borderopacity="1"
   inkscape:document-rotation="0"
   bordercolor="#666666"
   pagecolor="#ffffff" />
<g
   transform="translate(-1076.3,-223.6)"
   id="g885">
	<path
   inkscape:connector-curvature="0"
   id="path833"
   d="m 1201.6,656.9 v 0 c 0,0 0,-0.1 0,0 0,-0.1 0,0 0,0 z" />
	<path
   inkscape:connector-curvature="0"
   id="path835"
   d="m 1206.8,656.8 v 0 c 0,-0.1 0,-0.1 0,0 0,0 0,0 0,0 z" />
	<g
   id="g839">
		<path
   inkscape:connector-curvature="0"
   id="path837"
   d="m 1206.6,615.4 v 3.4 c 0,1.1 -0.7,2.1 -1.7,2.5 -0.1,0 -0.2,0.1 -0.3,0.1 -0.2,0.1 -0.5,0.1 -0.7,0.1 H 1160 c 0.1,-0.7 0.1,-1.3 0.1,-2 v -29.7 c 0,-7.2 -5.9,-13.1 -13.1,-13.1 v 0 -7.5 h 52.7 4.3 c 0.3,0 0.7,0.1 1,0.2 1,0.4 1.7,1.4 1.7,2.5 v 3.8 z" />
	</g>
	<g
   id="g843">
		<path
   inkscape:connector-curvature="0"
   id="path841"
   d="m 1282.6,582.2 c 0,2.6 -1,4.9 -2.7,6.6 v 0 c 1.8,1.8 2.7,4.1 2.7,6.6 0,2.6 -1.1,4.9 -2.7,6.6 v 0 c 1.7,1.7 2.7,4 2.7,6.5 v 0.1 c 0,0.1 0,0.1 0,0.2 -0.1,4.9 -4.1,8.9 -9,9.1 -0.1,0 -0.2,0 -0.3,0 h -15.8 c 0.6,1.2 0.9,2.5 0.9,3.9 0,2.5 -1,4.8 -2.7,6.6 -1.8,1.8 -4.1,2.7 -6.6,2.7 h -17.6 -12.1 c -0.7,0 -1.4,-0.1 -2,-0.2 -1.4,-0.2 -2.7,-0.7 -3.9,-1.4 -0.9,-0.5 -1.7,-1.1 -2.5,-1.9 l -3.4,-3.4 c 1.7,-1.2 2.8,-3.2 2.8,-5.3 v -47 c 0,-2.1 -1.1,-4.1 -2.8,-5.3 l 3.4,-3.4 c 2.2,-2.2 5.2,-3.4 8.3,-3.4 h 36.2 17.7 c 1.9,0 3.6,0.6 5.2,1.6 0.1,0.1 0.3,0.2 0.4,0.3 0.1,0 0.1,0.1 0.2,0.2 0,0 0,0 0.1,0 0.2,0.2 0.5,0.4 0.7,0.6 0.6,0.6 1.1,1.2 1.5,1.9 0,0.1 0.1,0.1 0.1,0.2 0,0 0,0 0,0 0,0.1 0.1,0.1 0.1,0.2 0.1,0.2 0.2,0.4 0.3,0.6 0,0 0,0.1 0,0.1 0.4,1 0.6,2.1 0.7,3.2 0,0.1 0,0.2 0,0.3 0,0.1 0,0.2 0,0.3 -0.1,2.5 -1.1,4.7 -2.7,6.3 v 0 c 1.8,1.8 2.8,4.1 2.8,6.6 z" />
	</g>
	<g
   id="g847">
		<path
   inkscape:connector-curvature="0"
   id="path845"
   d="m 1217.3,736.9 v 7.1 h -56.9 c -0.3,0 -0.7,-0.1 -1,-0.2 -0.3,-0.1 -0.7,-0.3 -0.9,-0.6 -0.5,-0.5 -0.8,-1.2 -0.8,-1.9 v -47 c 0,-0.7 0.3,-1.4 0.8,-1.9 0.2,-0.2 0.4,-0.4 0.7,-0.5 0.1,0 0.2,-0.1 0.3,-0.1 0.3,-0.1 0.6,-0.2 1,-0.2 h 3.9 40.1 c -0.1,0.8 -0.2,1.6 -0.2,2.4 v 12.1 17.6 c 0,3.5 1.4,6.8 3.9,9.3 2.2,2.6 5.5,3.9 9.1,3.9 z" />
	</g>
	<g
   id="g851">
		<path
   inkscape:connector-curvature="0"
   id="path849"
   d="m 1156.7,746.8 -3.6,3.6 c -2.2,2.2 -5.2,3.5 -8.3,3.5 h -53.9 c -1.9,0 -3.6,-0.5 -5.2,-1.6 -0.1,-0.1 -0.2,-0.1 -0.3,-0.2 -0.1,-0.1 -0.2,-0.1 -0.2,-0.2 -0.1,0 -0.1,-0.1 -0.2,-0.2 -0.2,-0.2 -0.4,-0.4 -0.7,-0.6 -0.1,-0.1 -0.1,-0.1 -0.2,-0.2 -0.5,-0.6 -1,-1.2 -1.4,-1.9 0,0 0,0 0,0 0,-0.1 -0.1,-0.1 -0.1,-0.2 0,-0.1 -0.1,-0.1 -0.1,-0.2 0,-0.1 -0.1,-0.1 -0.1,-0.2 0,0 0,0 0,0 0,-0.1 -0.1,-0.1 -0.1,-0.2 -0.5,-1.1 -0.7,-2.4 -0.7,-3.6 0,-2.5 1,-4.8 2.7,-6.6 0,0 0,0 0,0 0,0 0,0 0,0 -1.8,-1.8 -2.7,-4.1 -2.7,-6.6 0,-2.5 1,-4.8 2.7,-6.6 0,0 0,0 0,0 v 0 c -1.8,-1.7 -2.7,-4.1 -2.7,-6.6 0,-2.6 1,-4.9 2.7,-6.6 0,0 0,0 0,0 -1.7,-1.7 -2.7,-4 -2.7,-6.6 v 0 c 0,-2.4 1,-4.7 2.7,-6.5 1.8,-1.8 4.1,-2.7 6.6,-2.7 h 15.8 c -0.5,-1.2 -0.9,-2.5 -0.9,-3.9 0,-5.1 4.2,-9.3 9.3,-9.3 h 29.7 c 0.8,0 1.6,0.1 2.4,0.2 1.4,0.3 2.7,0.8 3.9,1.5 0.7,0.5 1.5,1 2.1,1.7 l 3.1,3.1 c -0.2,0.2 -0.4,0.3 -0.6,0.5 -1.2,1.2 -1.9,2.9 -1.9,4.6 v 47 c 0,1.7 0.7,3.4 1.9,4.6 0.3,0.5 0.7,0.8 1,1 z" />
	</g>
	<g
   id="g855">
		<path
   inkscape:connector-curvature="0"
   id="path853"
   d="m 1269.8,621.6 v 52.7 4.3 c 0,0.3 -0.1,0.7 -0.2,1 -0.4,1 -1.4,1.7 -2.5,1.7 h -3.4 -40.1 -3.4 c -1.1,0 -2.1,-0.7 -2.5,-1.7 0,-0.1 -0.1,-0.2 -0.1,-0.3 -0.1,-0.2 -0.1,-0.5 -0.1,-0.7 v -43.9 c 0.7,0.1 1.3,0.1 2,0.1 h 12.1 17.6 c 3.5,0 6.8,-1.4 9.3,-3.9 2.5,-2.5 3.8,-5.8 3.8,-9.3 v 0 z" />
	</g>
	<g
   id="g861">
		<path
   inkscape:connector-curvature="0"
   id="path857"
   d="m 1229.9,751.9 v 0 c 0.1,0 0.1,0 0,0 0.1,0 0.1,0 0,0 z" />
		<path
   inkscape:connector-curvature="0"
   id="path859"
   d="m 1230,757.3 v 0 c 0.1,0 0.1,0 0,0 0,0 0,0 0,0 z" />
	</g>
	<g
   id="g867">
		<path
   inkscape:connector-curvature="0"
   id="path863"
   d="m 1230.4,751.9 c 0,0 -0.1,0 0,0 z" />
		<path
   inkscape:connector-curvature="0"
   id="path865"
   d="m 1279.2,694.1 c 0,-3.2 -1.2,-6.1 -3.5,-8.3 l -3.4,-3.4 c -1.2,1.7 -3.2,2.8 -5.3,2.8 h -47 c -2.1,0 -4.1,-1.1 -5.3,-2.8 l -3.4,3.4 c -0.6,0.6 -1.2,1.3 -1.7,2.1 -0.7,1.2 -1.3,2.5 -1.6,3.9 -0.2,0.8 -0.2,1.6 -0.2,2.4 v 12.1 17.6 c 0,2.5 1,4.8 2.7,6.6 1.8,1.8 4.1,2.7 6.6,2.7 1.4,0 2.7,-0.3 3.9,-0.9 V 748 c 0,5.1 4.1,9.2 9.1,9.3 0.1,0 0.1,0 0.2,0 h 0.1 c 2.4,0 4.7,-1 6.5,-2.7 v 0 c 1.7,1.7 4,2.7 6.6,2.7 2.5,0 4.8,-1 6.6,-2.7 v 0 c 1.7,1.7 4,2.7 6.6,2.7 2.5,0 4.8,-1 6.6,-2.7 v 0 c 1.6,1.6 3.9,2.7 6.3,2.7 0.1,0 0.2,0 0.3,0 0.1,0 0.2,0 0.3,0 1.1,0 2.2,-0.2 3.2,-0.7 0,0 0.1,0 0.1,0 0.2,-0.1 0.4,-0.2 0.6,-0.3 0.1,0 0.1,-0.1 0.2,-0.1 0,0 0,0 0,0 0.1,0 0.1,-0.1 0.2,-0.1 0.7,-0.4 1.4,-0.9 1.9,-1.5 0.2,-0.2 0.4,-0.4 0.6,-0.7 0,0 0,0 0,-0.1 0.1,-0.1 0.1,-0.1 0.2,-0.2 0.1,-0.2 0.2,-0.3 0.3,-0.4 1,-1.5 1.6,-3.3 1.6,-5.2 v -17.7 z m -48.9,57.8 v 0 0 c 0.1,0 0,0 0,0 z" />
	</g>
	<g
   id="g875">
		<path
   inkscape:connector-curvature="0"
   id="path869"
   d="m 1146.9,633.7 -0.3,0.3 c -0.1,-0.3 -0.3,-0.7 -0.6,-0.9 -0.5,-0.5 -1.2,-0.8 -1.9,-0.8 h 0.4 c 0.7,0 1.4,0.3 1.9,0.8 0.2,0.2 0.4,0.4 0.5,0.6 z" />
		<path
   inkscape:connector-curvature="0"
   id="path871"
   d="m 1147.2,635 v 3.9 40.1 c -0.8,-0.1 -1.6,-0.2 -2.4,-0.2 h -29.7 c -7.2,0 -13.1,5.9 -13.1,13.1 v 0 h -7.1 V 635 c 0,-0.3 0.1,-0.7 0.2,-1 0.1,-0.3 0.3,-0.7 0.6,-0.9 0.5,-0.5 1.2,-0.8 1.9,-0.8 h 46.6 c 0.7,0 1.4,0.3 1.9,0.8 0.3,0.3 0.5,0.6 0.6,0.9 l 0.3,-0.3 c 0,0.1 0.1,0.2 0.1,0.3 0.1,0.3 0.1,0.7 0.1,1 z" />
		<path
   inkscape:connector-curvature="0"
   id="path873"
   d="m 1146.9,633.7 -0.3,0.3 c -0.1,-0.3 -0.3,-0.7 -0.6,-0.9 -0.5,-0.5 -1.2,-0.8 -1.9,-0.8 h 0.4 c 0.7,0 1.4,0.3 1.9,0.8 0.2,0.2 0.4,0.4 0.5,0.6 z" />
	</g>
	<g
   id="g883">
		<path
   inkscape:connector-curvature="0"
   id="path877"
   d="m 1146.9,633.7 -0.3,0.3 c -0.1,-0.3 -0.3,-0.7 -0.6,-0.9 -0.5,-0.5 -1.2,-0.8 -1.9,-0.8 h 0.4 c 0.7,0 1.4,0.3 1.9,0.8 0.2,0.2 0.4,0.4 0.5,0.6 z" />
		<path
   inkscape:connector-curvature="0"
   id="path879"
   d="m 1146.9,633.7 -0.3,0.3 c -0.1,-0.3 -0.3,-0.7 -0.6,-0.9 -0.5,-0.5 -1.2,-0.8 -1.9,-0.8 h 0.4 c 0.7,0 1.4,0.3 1.9,0.8 0.2,0.2 0.4,0.4 0.5,0.6 z" />
		<path
   inkscape:connector-curvature="0"
   id="path881"
   d="m 1156.3,589.8 v 29.7 c 0,0.7 -0.1,1.4 -0.2,2 -0.2,1.4 -0.7,2.7 -1.4,3.9 -0.5,0.9 -1.1,1.7 -1.9,2.5 l -3.1,3.1 c -0.2,-0.2 -0.3,-0.4 -0.5,-0.6 -1.2,-1.2 -2.9,-1.9 -4.6,-1.9 h -47 c -1.7,0 -3.4,0.7 -4.6,1.9 -0.3,0.3 -0.6,0.7 -0.8,1.1 l -3.6,-3.6 c -2.2,-2.2 -3.5,-5.2 -3.5,-8.3 v -53.9 c 0,-1.9 0.5,-3.6 1.6,-5.2 0.1,-0.1 0.1,-0.2 0.2,-0.3 0.1,-0.1 0.1,-0.2 0.2,-0.2 0,-0.1 0.1,-0.1 0.2,-0.2 0.2,-0.2 0.4,-0.4 0.6,-0.7 0.1,-0.1 0.1,-0.1 0.2,-0.2 0.6,-0.5 1.2,-1 1.9,-1.4 0,0 0,0 0,0 0.1,0 0.1,-0.1 0.2,-0.1 0.1,0 0.1,-0.1 0.2,-0.1 0.1,0 0.1,-0.1 0.2,-0.1 0,0 0,0 0,0 0.1,0 0.1,-0.1 0.2,-0.1 1.1,-0.5 2.4,-0.7 3.6,-0.7 2.5,0 4.8,1 6.6,2.7 0,0 0,0 0,0 v 0 c 1.8,-1.8 4.1,-2.7 6.6,-2.7 2.5,0 4.8,1 6.6,2.7 0,0 0,0 0,0 v 0 c 1.7,-1.8 4.1,-2.7 6.6,-2.7 2.6,0 4.9,1 6.6,2.7 0,0 0,0 0,0 1.7,-1.7 4,-2.7 6.6,-2.7 h 0.1 c 2.4,0 4.7,1 6.5,2.7 1.7,1.7 2.6,3.9 2.7,6.3 0,0.1 0,0.2 0,0.3 v 15.8 c 1.2,-0.5 2.5,-0.9 3.9,-0.9 4.9,-0.1 9.1,4.1 9.1,9.2 z" />
	</g>
</g>
<g
   transform="translate(-1076.3,-223.6)"
   id="g905">
	<g
   id="g891">
		<g
   id="g889">
			<path
   inkscape:connector-curvature="0"
   id="path887"
   d="M 369.3,756.2 H 177.4 c -1.5,0 -2.7,-1.2 -2.7,-2.7 0,-1.5 1.2,-2.7 2.7,-2.7 h 191.9 c 1.5,0 2.7,1.2 2.7,2.7 0,1.5 -1.2,2.7 -2.7,2.7 z" />
		</g>
	</g>
	<g
   id="g895">
		<path
   inkscape:connector-curvature="0"
   id="path893"
   d="m 244.8,579.2 c 0,7 -3.7,13.2 -9.2,16.7 -3.1,2 -6.8,3.1 -10.7,3.1 -3.9,0 -7.6,-1.2 -10.7,-3.1 -5.5,-3.5 -9.2,-9.7 -9.2,-16.7 0,-11 8.9,-19.9 19.9,-19.9 11,0 19.9,8.9 19.9,19.9 z" />
	</g>
	<g
   id="g899">
		<path
   inkscape:connector-curvature="0"
   id="path897"
   d="m 341.7,579.2 c 0,7 -3.7,13.2 -9.2,16.7 -3.1,2 -6.8,3.1 -10.7,3.1 -3.9,0 -7.6,-1.2 -10.7,-3.1 -5.5,-3.5 -9.2,-9.7 -9.2,-16.7 0,-11 8.9,-19.9 19.9,-19.9 11,0 19.9,8.9 19.9,19.9 z" />
	</g>
	<g
   id="g903">
		<path
   inkscape:connector-curvature="0"
   id="path901"
   d="m 392.5,731.7 h -54 l 4.8,-92.3 33.7,-78.3 c 0.5,-1.3 0.1,-2.7 -1.1,-3.4 -1.2,-0.7 -2.7,-0.4 -3.5,0.7 L 337,603.9 h -4.4 v -3.5 c -3.2,1.6 -6.8,2.5 -10.7,2.5 -3.8,0 -7.5,-0.9 -10.7,-2.5 v 3.5 h -4.4 l -29.1,-37.3 v 0 c -2.2,-2.8 -6.4,-2.8 -8.6,0 v 0 L 240,603.9 h -4.4 v -3.5 c -3.2,1.6 -6.8,2.5 -10.7,2.5 -3.8,0 -7.5,-0.9 -10.7,-2.5 v 3.5 h -4.4 l -35.4,-45.5 c -0.8,-1.1 -2.3,-1.4 -3.5,-0.7 -1.2,0.7 -1.6,2.1 -1.1,3.4 l 33.7,78.3 4.8,92.3 h -54 c -1.5,0 -2.7,1.2 -2.7,2.7 0,1.5 1.2,2.7 2.7,2.7 h 238.2 c 1.5,0 2.7,-1.2 2.7,-2.7 0,-1.5 -1.2,-2.7 -2.7,-2.7 z m -151,0 4.8,-92.3 27,-62.8 27,62.8 4.8,92.3 z" />
	</g>
</g>
<g
   transform="translate(-1076.3,-223.6)"
   id="g921">
	<g
   id="g911">
		<g
   id="g909">
			<path
   inkscape:connector-curvature="0"
   id="path907"
   d="m 565.4,372.5 c -1.5,-2.6 -3.3,-5.1 -5.4,-7.2 -4.8,-4.9 -11,-8.4 -18,-9.9 -1.8,-0.4 -3.6,-0.6 -5.4,-0.7 -0.5,0 -1,0 -1.6,0 -3.3,0 -6.4,0.5 -9.4,1.3 -1.9,0.5 -3.7,1.2 -5.4,2 -6,2.8 -11,7.3 -14.6,12.9 -3.4,5.4 -5.4,11.8 -5.4,18.6 v 0 c 0,19.2 15.6,34.8 34.8,34.8 19.2,0 34.8,-15.6 34.8,-34.8 0,-6.1 -1.6,-12 -4.4,-17 z m -33.1,13.7 c 0.8,0.4 1.7,0.7 2.7,0.7 0.9,0 1.8,0.1 2.7,0.3 4.9,1.2 8.6,5.7 8.6,11 0,5.3 -3.7,9.8 -8.6,11 v 1.9 c 0,1.5 -1.2,2.7 -2.7,2.7 -1.5,0 -2.7,-1.2 -2.7,-2.7 v -1.9 c -4.9,-1.2 -8.6,-5.7 -8.6,-11 0,-1.5 1.2,-2.7 2.7,-2.7 1.5,0 2.7,1.2 2.7,2.7 0,2.3 1.3,4.2 3.2,5.2 0.8,0.4 1.7,0.7 2.7,0.7 1,0 1.9,-0.2 2.7,-0.7 1.9,-1 3.2,-3 3.2,-5.2 0,-2.3 -1.3,-4.3 -3.2,-5.2 -0.8,-0.4 -1.7,-0.7 -2.7,-0.7 -0.9,0 -1.8,-0.1 -2.7,-0.3 -2.8,-0.7 -5.2,-2.4 -6.7,-4.8 -1.2,-1.8 -1.9,-3.9 -1.9,-6.2 0,-2.3 0.7,-4.4 1.9,-6.2 1.5,-2.3 3.9,-4.1 6.7,-4.8 v -1.9 c 0,-1.5 1.2,-2.7 2.7,-2.7 0.6,0 1.1,0.2 1.6,0.5 0.7,0.5 1.1,1.3 1.1,2.2 v 1.9 c 1.6,0.4 3,1.1 4.3,2.1 2.5,2 4.2,5 4.3,8.4 0,0.2 0,0.3 0,0.5 0,1.5 -1.2,2.7 -2.7,2.7 -1.5,0 -2.7,-1.2 -2.7,-2.7 0,-2.3 -1.3,-4.3 -3.2,-5.2 -0.3,-0.1 -0.6,-0.3 -0.9,-0.4 -0.6,-0.2 -1.2,-0.3 -1.8,-0.3 -1,0 -1.9,0.2 -2.7,0.7 -1.9,1 -3.2,3 -3.2,5.2 0,2.2 1.3,4.2 3.2,5.2 z" />
		</g>
	</g>
	<g
   id="g915">
		<path
   inkscape:connector-curvature="0"
   id="path913"
   d="m 628.2,277.3 -21.6,21.6 c -0.5,0.5 -1.2,0.8 -1.9,0.8 -0.7,0 -1.4,-0.3 -1.9,-0.8 l -13,-13 -3.8,-3.8 -30.8,-30.9 -11.8,-11.8 c -1.1,-1 -1.1,-2.8 0,-3.8 L 565,214 c 1,-1 2.8,-1 3.8,0 l 59.5,59.5 c 0.9,1 0.9,2.7 -0.1,3.8 z" />
	</g>
	<g
   id="g919">
		<path
   inkscape:connector-curvature="0"
   id="path917"
   d="m 580.1,300 c 2.9,2.9 4.5,6.8 4.5,11 0,4.1 -1.6,8 -4.5,11 l -12.3,12.3 c -1.6,1.6 -2.4,3.6 -2.4,5.9 v 25.5 c -1.6,-2 -3.4,-3.9 -5.4,-5.6 -5,-4.3 -11.2,-7.3 -18,-8.5 -1.8,-0.3 -3.6,-0.5 -5.4,-0.6 v -6.1 c 0,-3 -2.5,-5.5 -5.5,-5.5 -3,0 -5.5,2.5 -5.5,5.5 v 7.2 c -1.9,0.5 -3.7,1.1 -5.4,1.8 -5.7,2.4 -10.6,6 -14.6,10.6 -2.1,2.5 -4,5.3 -5.4,8.3 V 304 c 0,-3.7 1.4,-7.1 4,-9.7 l 44.3,-44.3 3.8,3.8 34.7,34.7 -6.9,6.9 c -1.3,1.3 -1.3,3.4 0,4.6 z" />
	</g>
</g>
<g
   transform="translate(-1076.3,-223.6)"
   id="g933">
	<path
   inkscape:connector-curvature="0"
   id="path923"
   d="m 890,216.5 c -8.1,0 -15.6,3.7 -20.6,9.9 -5,-6.2 -12.6,-9.9 -20.6,-9.9 -14.6,0 -26.5,11.9 -26.5,26.5 0,7.7 3.3,15 9.1,20 l 36,36.9 c 0.5,0.5 1.2,0.8 1.9,0.8 0.7,0 1.4,-0.3 1.9,-0.8 l 36,-36.9 c 5.8,-5 9.1,-12.3 9.1,-20 0.1,-14.6 -11.8,-26.5 -26.3,-26.5 z m -29.4,64.1 c -0.6,3 -3.2,3.5 -5.4,1.4 l -21.2,-21.8 -0.1,-0.1 c -3.6,-3.1 -6.2,-7.3 -7.3,-11.9 -3,-13.4 6,-25.5 18.4,-27.5 0.2,0 0.3,0 0.5,0 1.7,0 3.1,1.4 3.1,3.1 0,1.5 -1.1,2.8 -2.6,3.1 -7.8,1.3 -13.8,8 -13.8,16.2 0,4.8 2.1,9.3 5.7,12.4 l 0.3,0.3 21.6,22.1 c 0.8,0.6 1.1,1.6 0.8,2.7 z" />
	<g
   id="g927">
		<path
   inkscape:connector-curvature="0"
   id="path925"
   d="M 955.3,332.7 904.8,386 c -3.5,3.7 -8.3,5.8 -13.3,5.8 h -61.7 c -8.5,0 -16.3,4.7 -20.1,12.3 l -7.8,15.4 c -0.5,0.9 -1.4,1.5 -2.4,1.5 h -49.8 c -1,0 -1.8,-0.5 -2.3,-1.3 -0.5,-0.8 -0.5,-1.8 -0.1,-2.7 l 38.9,-74.8 c 5.9,-11.3 17.5,-18.4 30.2,-18.4 h 67.5 c 1.5,0 2.7,1.2 2.7,2.7 0,0.1 0,0.2 0,0.3 -0.1,6.4 -2.6,12.5 -7.2,17 -4.6,4.6 -10.8,7.2 -17.3,7.2 h -13.8 c -1,0 -2,0.4 -2.8,1.2 -0.7,0.7 -1,1.6 -1,2.5 0,0.9 0.4,1.8 1,2.5 0.7,0.7 1.6,1.1 2.5,1.1 h 48.9 l 31.5,-31.6 2.5,-2.5 c 1.2,-1.1 2.7,-1.8 4.3,-1.8 h 15.7 c 2.5,0 4.6,1.4 5.5,3.6 1,2.4 0.6,4.9 -1.1,6.7 z" />
	</g>
	<g
   id="g931">
		<path
   inkscape:connector-curvature="0"
   id="path929"
   d="m 926.1,323.6 c -1,-0.7 -2.2,-1.1 -3.5,-1.1 h -11.1 c -1.6,0 -3.1,0.6 -4.3,1.8 L 877,354.5 h 18.2 z" />
	</g>
</g>
<g
   transform="translate(-1076.3,-223.6)"
   id="g955">
	<g
   id="g937">
		<path
   inkscape:connector-curvature="0"
   id="path935"
   d="m 342.4,252.7 c 0,10.3 -6.8,19.1 -16.1,22.2 -1.7,0.6 -3.5,0.9 -5.4,1.1 -0.6,0.1 -1.2,0.1 -1.9,0.1 -9.7,0 -18,-5.9 -21.6,-14.4 -0.7,-1.7 -1.2,-3.5 -1.5,-5.4 -0.2,-1.2 -0.3,-2.4 -0.3,-3.6 0,-12.9 10.5,-23.3 23.3,-23.3 13,0 23.5,10.4 23.5,23.3 z" />
	</g>
	<g
   id="g943">
		<path
   inkscape:connector-curvature="0"
   id="path939"
   d="m 289.6,336.6 c -0.5,0.4 -1.1,0.7 -1.8,0.7 -0.8,0 -1.5,-0.3 -2,-0.9 l -13.7,-15.9 -5.4,-6.3 -8.4,-9.7 c -0.3,-0.4 -0.5,-0.8 -0.6,-1.3 l -3.3,-17.3 -3,5.1 -10.6,18.2 v 112.2 c 0,1.4 -1,2.5 -2.4,2.7 -1.4,0.2 -2.6,-0.7 -3,-2 l -16.3,-63.8 -24.4,64.1 c -0.4,1.1 -1.4,1.7 -2.5,1.7 -0.2,0 -0.4,0 -0.6,-0.1 -1.3,-0.3 -2.2,-1.5 -2.1,-2.8 l 7.7,-104.4 c 0,-0.4 0.1,-0.7 0.3,-1.1 L 234,248 c 0.9,1.9 2,3.7 3.3,5.4 2.4,3.1 5.4,5.6 8.9,7.4 2.1,1.1 4.3,1.9 6.7,2.4 l 3.2,8.6 2.1,5.6 c 0,0 0,0 0,0.1 0,0 0,0 0,0 0,0 0,0 0,0.1 0,0.1 0.1,0.2 0.1,0.3 v 0.1 l 4.6,23.6 3.8,4.4 5.4,6.3 17.8,20.6 c 0.9,1 0.8,2.7 -0.3,3.7 z" />
		<path
   inkscape:connector-curvature="0"
   id="path941"
   d="m 282.1,236.7 c 0,12.9 -10.5,23.3 -23.3,23.3 -2.6,0 -5.2,-0.4 -7.6,-1.3 -2.7,-0.9 -5.2,-2.3 -7.3,-4.1 -1.8,-1.4 -3.3,-3.2 -4.6,-5.1 -1.2,-1.9 -2.2,-3.9 -2.9,-6.1 -0.7,-2.2 -1,-4.5 -1,-6.8 0,-12.9 10.5,-23.3 23.3,-23.3 12.9,0 23.4,10.5 23.4,23.4 z" />
	</g>
	<g
   id="g949">
		<path
   inkscape:connector-curvature="0"
   id="path945"
   d="m 326.3,321.6 v 99.9 c 0,1.3 -0.9,2.4 -2.2,2.6 -1.3,0.3 -2.5,-0.4 -3,-1.6 l -24.2,-56.1 -25.1,56.1 c -0.4,1 -1.4,1.6 -2.5,1.6 -0.2,0 -0.4,0 -0.6,-0.1 -1.3,-0.3 -2.1,-1.4 -2.1,-2.6 V 320.1 l 5.4,6.3 10.8,12.5 c 1.3,1.4 3.1,2.3 5,2.3 1.6,0 3.1,-0.6 4.3,-1.6 1.3,-1.2 2.1,-2.7 2.3,-4.5 0.1,-1.7 -0.4,-3.4 -1.6,-4.8 l -20.7,-24 -5.4,-6.3 v -4.3 l 5.4,5.8 16.7,17.9 c 1.2,1.3 3,2.1 4.8,2.1 h 32.7 z" />
		<path
   inkscape:connector-curvature="0"
   id="path947"
   d="m 326.3,278.9 v 29.5 h -29.9 l -22.3,-23.9 c -1.2,-1.3 -3,-2.1 -4.8,-2.1 -0.9,0 -1.7,0.2 -2.5,0.5 1.4,-13.5 11.9,-24.4 25.3,-26.3 0.3,1.8 0.7,3.6 1.3,5.3 3.8,10.5 13.8,18.1 25.6,18.1 0.6,0 1.2,0 1.9,-0.1 1.9,-0.2 3.7,-0.5 5.4,-1 z" />
	</g>
	<g
   id="g953">
		<path
   inkscape:connector-curvature="0"
   id="path951"
   d="m 357.3,324.1 v 97.5 c 0,1.5 -1.2,2.7 -2.7,2.7 -1.5,0 -2.7,-1.2 -2.7,-2.7 v -97.5 c 0,-1.7 -0.7,-3.2 -1.7,-4.3 -1.2,-1.2 -2.8,-2 -4.6,-2 -2.6,0 -4.8,1.6 -5.8,3.9 -0.3,0.8 -0.5,1.6 -0.5,2.5 v 3.7 c 0,1.5 -1.2,2.7 -2.7,2.7 -1.5,0 -2.7,-1.2 -2.7,-2.7 v -3.7 c 0,-0.8 0.1,-1.7 0.3,-2.5 0.3,-1.4 0.8,-2.7 1.6,-3.9 h -42.1 c -0.7,0 -1.5,-0.3 -2,-0.9 l -19.5,-21 -4.7,-5 c -0.5,-0.5 -0.7,-1.2 -0.7,-1.8 0,-0.7 0.3,-1.5 0.9,-2 1.1,-1 2.8,-1 3.8,0.1 l 0.7,0.8 22.7,24.4 h 50.8 c 2.4,0 4.7,0.7 6.5,2 3,2 5.1,5.6 5.1,9.7 z" />
	</g>
</g>
<g
   transform="translate(-1076.3,-223.6)"
   id="g983">
	<g
   id="g959">
		<path
   inkscape:connector-curvature="0"
   id="path957"
   d="m 955.4,675 c 0,1.5 -1.2,2.7 -2.7,2.7 0,0 0,0 0,0 H 751.2 c -1,0 -1.9,-0.5 -2.4,-1.4 -0.5,-0.8 -0.5,-1.9 0,-2.7 L 766.6,644 c 0.5,-0.8 1.4,-1.3 2.3,-1.3 h 166 c 0.3,0 0.7,0.1 0.9,0.2 0.6,0.2 1,0.6 1.4,1.1 l 17.6,29.4 c 0.4,0.4 0.6,1 0.6,1.6 z" />
	</g>
	<g
   id="g965">
		<path
   inkscape:connector-curvature="0"
   id="path961"
   d="m 875.3,575.3 h -33.2 v -13.5 c 0,-1.5 1.2,-2.7 2.7,-2.7 h 27.8 c 1.5,0 2.7,1.2 2.7,2.7 z" />
		<path
   inkscape:connector-curvature="0"
   id="path963"
   d="m 890.2,593.3 c -0.9,0.9 -1.7,1.8 -2.5,2.7 -0.9,0.9 -1.7,1.9 -2.6,2.9 v 0 c -4,4.7 -7.8,9.9 -11.4,15.5 -0.3,0.5 -0.7,1.1 -1,1.6 -0.3,0.5 -0.7,1.1 -1,1.7 -4.3,7.1 -7.8,14.2 -10.4,21.1 H 844 l -6.5,-31.5 c 0,-0.2 -0.1,-0.4 -0.2,-0.7 -0.1,-0.2 -0.2,-0.4 -0.2,-0.6 -0.1,-0.2 -0.2,-0.4 -0.2,-0.5 -0.1,-0.2 -0.2,-0.3 -0.3,-0.5 l -8.8,-13.4 c 2.4,-6.2 7.8,-10.9 14.3,-12.2 V 579 h 33.2 v 0.4 c 7.2,1.6 12.9,7 14.9,13.9 z" />
	</g>
	<g
   id="g971">
		<path
   inkscape:connector-curvature="0"
   id="path967"
   d="m 937.6,681.6 v 70.3 c 0,1.5 -1.2,2.7 -2.7,2.7 h -166 c -1.5,0 -2.7,-1.2 -2.7,-2.7 v -70.3 z" />
		<path
   inkscape:connector-curvature="0"
   id="path969"
   d="m 943.6,607.9 c -1.3,9.6 -4.7,20.3 -10.1,31 h -68.1 c 0.2,-0.6 0.4,-1.1 0.7,-1.7 2.4,-5.7 5.3,-11.5 8.8,-17.4 l 1.5,0.9 14.6,8.9 4.7,2.9 c 0.3,0.2 0.7,0.3 1,0.3 0.6,0 1.3,-0.3 1.7,-0.9 0.6,-0.9 0.3,-2.1 -0.6,-2.7 l -6.7,-4.1 -12.5,-7.7 v 0 l -1.5,-0.9 c 3.6,-5.6 7.4,-10.8 11.4,-15.4 l 0.2,0.1 2.3,1.5 16.1,10.1 c 0.3,0.2 0.7,0.3 1,0.3 0.6,0 1.3,-0.3 1.6,-0.9 0.6,-0.9 0.3,-2.1 -0.6,-2.7 L 891,598.1 c 0.1,-0.2 0.3,-0.3 0.4,-0.5 11.8,-12.7 24.6,-20.3 34.9,-20.3 3.3,0 6.3,0.8 8.9,2.4 7.2,4.5 10.2,14.5 8.4,28.2 z" />
	</g>
	<g
   id="g981">
		<path
   inkscape:connector-curvature="0"
   id="path973"
   d="m 820.8,586.8 -46.1,9.5 -2.1,-10.3 c -0.3,-1.5 0.6,-2.9 2.1,-3.2 l 40.8,-8.4 c 0.7,-0.1 1.4,0 2,0.4 0.6,0.4 1,1 1.2,1.7 z" />
		<path
   inkscape:connector-curvature="0"
   id="path975"
   d="M 840.1,638.8 H 774.9 L 771.6,623 c 0,0 0,0 0,0 l 54.8,-12.3 7.3,-1.6 c 0.1,0 0.1,0 0.2,-0.1 z" />
		<path
   inkscape:connector-curvature="0"
   id="path977"
   d="m 832.2,605.6 -5.7,1.3 -55.1,12.3 3.3,-19 c 0.1,0 0.2,0 0.3,0 0.1,0 0.3,0 0.4,0 l 46.1,-9.5 c 0.2,0 0.5,-0.1 0.7,-0.3 l 4.4,6.6 z" />
		<path
   inkscape:connector-curvature="0"
   id="path979"
   d="m 820.8,586.8 -46.1,9.5 -2.1,-10.3 c -0.3,-1.5 0.6,-2.9 2.1,-3.2 l 40.8,-8.4 c 0.7,-0.1 1.4,0 2,0.4 0.6,0.4 1,1 1.2,1.7 z" />
	</g>
</g>
<g
   style="fill:#96aa66;fill-opacity:1"
   transform="matrix(0.33152372,0,0,0.31512605,-356.81898,-70.462185)"
   id="g999">
	<g
   style="fill:#96aa66;fill-opacity:1"
   id="g987">
		<path
   style="fill:#96aa66;fill-opacity:1"
   inkscape:connector-curvature="0"
   id="path985"
   d="m 1218.3,242.1 c 0,5.4 -2.3,10.4 -6.3,13.9 l -7.9,8.1 -3.8,3.9 -5.3,5.4 -3.8,3.9 -3.1,3.2 c -0.5,0.5 -1.2,0.8 -1.9,0.8 -0.7,0 -1.4,-0.3 -1.9,-0.8 l -3.1,-3.2 -3.8,-3.9 -5.3,-5.4 -3.8,-3.9 -7.9,-8.1 c -4,-3.5 -6.4,-8.6 -6.4,-13.9 0,-10.2 8.3,-18.5 18.5,-18.5 5.3,0 10.2,2.3 13.7,6.1 3.5,-3.8 8.4,-6.1 13.7,-6.1 10.1,0 18.4,8.3 18.4,18.5 z" />
	</g>
	<g
   style="fill:#96aa66;fill-opacity:1"
   id="g997">
		<g
   style="fill:#96aa66;fill-opacity:1"
   id="g991">
			<path
   style="fill:#96aa66;fill-opacity:1"
   inkscape:connector-curvature="0"
   id="path989"
   d="m 1285,324.3 h -20.4 c -1.2,-26.1 -19.4,-47.8 -43.7,-54.3 -1.4,-0.4 -2.8,-0.7 -4.2,-1 -1.5,-0.3 -3.1,-0.5 -4.7,-0.7 -2.1,-0.2 -4.2,-0.3 -6.3,-0.3 l -5.3,5.4 -0.8,0.8 -3,3.1 -2.3,2.3 -3.5,3.6 c -1.2,1.3 -2.9,2 -4.7,2 -1.8,0 -3.5,-0.7 -4.7,-2 l -3.5,-3.6 -2.3,-2.3 -3,-3.1 -0.8,-0.8 -5.3,-5.4 h -15.4 c -0.4,0 -0.9,0 -1.3,0 -0.6,0 -1.3,0 -1.9,0.1 v 0 c -2.8,0.2 -5.5,0.5 -8.2,1 -8.2,1.6 -15.8,4.9 -22.5,9.6 -1.6,1.1 -3.1,2.3 -4.6,3.6 -5.9,5.1 -10.8,11.3 -14.4,18.3 H 1079 c -1.5,0 -2.7,1.2 -2.7,2.7 v 39.3 c 0,1.5 1.2,2.7 2.7,2.7 h 15.8 c 5.1,15.8 16.6,28.6 31.5,35.5 v 30.5 c 0,1.5 1.2,2.7 2.7,2.7 h 34.3 c 1.5,0 2.7,-1.2 2.7,-2.7 v -25.1 h 24.3 v 25.1 c 0,1.5 1.2,2.7 2.7,2.7 h 34.3 c 1.5,0 2.7,-1.2 2.7,-2.7 v -30.5 c 19.5,-9 33.3,-28.3 34.3,-50.9 h 20.4 c 1.5,0 2.7,-1.2 2.7,-2.7 0.3,-1.6 -0.9,-2.9 -2.4,-2.9 z m -155.8,-10.8 c -7.3,0 -13.9,-4 -17.3,-10.5 -0.7,-1.3 -0.2,-3 1.2,-3.6 1.3,-0.7 2.9,-0.2 3.6,1.2 2.4,4.7 7.2,7.6 12.5,7.6 1.5,0 2.7,1.2 2.7,2.7 0,1.4 -1.2,2.6 -2.7,2.6 z m 78.8,-21.6 h -43.6 c -1.5,0 -2.7,-1.2 -2.7,-2.7 0,-1.5 1.2,-2.7 2.7,-2.7 h 43.6 c 1.5,0 2.7,1.2 2.7,2.7 0,1.5 -1.3,2.7 -2.7,2.7 z" />
		</g>
		<g
   style="fill:#96aa66;fill-opacity:1"
   id="g995">
			<path
   style="fill:#96aa66;fill-opacity:1"
   inkscape:connector-curvature="0"
   id="path993"
   d="m 1143,264.7 c -1.3,0.2 -2.6,0.4 -3.9,0.6 -1.3,0.2 -2.5,0.5 -3.8,0.9 -6.9,1.8 -13.4,4.7 -19.3,8.7 -0.3,0.2 -0.6,0.4 -0.9,0.6 -1.2,0.9 -2.5,1.8 -3.6,2.8 -2.1,-5.7 -5.2,-11 -9.1,-15.6 l -9.6,-11.2 c -0.7,-0.8 -0.8,-2 -0.3,-3 0.5,-1 1.6,-1.5 2.7,-1.4 16.7,1.7 33,7.6 46.9,17 z" />
		</g>
	</g>
</g>
<g
   transform="translate(-1076.3,-223.6)"
   id="g1005">
	<path
   inkscape:connector-curvature="0"
   id="path1001"
   d="m 594.7,691.4 c 0,1.6 -0.2,3.1 -0.7,4.6 -0.8,2.6 -2.4,4.9 -4.4,6.7 -0.1,0.1 -0.1,0.1 -0.2,0.2 l -24.8,25.3 -24.7,-25.3 c -0.1,-0.1 -0.1,-0.1 -0.2,-0.2 -3.3,-2.8 -5.2,-6.9 -5.2,-11.3 0,-3.9 1.5,-7.6 4.2,-10.4 2.8,-2.9 6.6,-4.5 10.6,-4.5 5.3,0 10.3,2.9 12.9,7.5 0.5,0.8 1.4,1.4 2.3,1.4 1,0 1.9,-0.5 2.3,-1.4 2.6,-4.6 7.6,-7.5 12.9,-7.5 8.3,0 15,6.7 15,14.9 z" />
	<path
   inkscape:connector-curvature="0"
   id="path1003"
   d="m 624.4,572.3 c -2.3,-2.3 -5.4,-3.7 -8.9,-3.7 -6.9,0 -12.5,5.6 -12.5,12.5 v 56.6 h -3 v -72.3 c 0,-3.7 -1.5,-7 -3.9,-9.4 -2.4,-2.4 -5.7,-3.9 -9.4,-3.9 -7.3,0 -13.2,5.9 -13.2,13.2 v 72.3 h -3.1 v -72.3 c 0,-3.7 -1.5,-7 -3.9,-9.4 -2.4,-2.4 -5.7,-3.9 -9.4,-3.9 -7.3,0 -13.2,5.9 -13.2,13.2 v 72.3 h -3.1 v -72.3 c 0,-3.7 -1.5,-7 -3.9,-9.4 -2.4,-2.4 -5.7,-3.9 -9.4,-3.9 -7.3,0 -13.2,5.9 -13.2,13.2 v 55.2 c 9.3,0 17,7.8 17.1,17.1 v 0 25.8 h -3.9 v -25.8 c 0,-0.1 0,-0.2 0,-0.2 -0.1,-3.6 -1.5,-6.8 -3.9,-9.1 -2.4,-2.4 -5.7,-3.9 -9.3,-3.9 v 0 c -7.3,0 -13.2,5.9 -13.2,13.2 v 60 c 0,17.5 7.1,33.4 18.6,44.9 11.5,11.5 27.4,18.6 44.9,18.6 35.1,0 63.5,-28.4 63.5,-63.5 V 581.2 c 0,-3.5 -1.4,-6.6 -3.7,-8.9 z m -25.3,125.3 c -1.1,3.5 -3.2,6.6 -6,9 l -26.6,27.2 c -0.5,0.5 -1.2,0.8 -1.9,0.8 -0.7,0 -1.4,-0.3 -1.9,-0.8 l -26.6,-27.2 c -4.4,-3.9 -7,-9.4 -7,-15.3 0,-5.3 2.1,-10.4 5.8,-14.2 3.8,-3.9 9,-6.1 14.5,-6.1 5.9,0 11.4,2.6 15.2,6.9 3.8,-4.3 9.4,-6.9 15.2,-6.9 11.2,0 20.3,9.1 20.3,20.3 0,2.2 -0.3,4.3 -1,6.3 z" />
</g>
</svg>
