<?xml version="1.0" encoding="UTF-8" standalone="no"?>
<svg
   xmlns:dc="http://purl.org/dc/elements/1.1/"
   xmlns:cc="http://creativecommons.org/ns#"
   xmlns:rdf="http://www.w3.org/1999/02/22-rdf-syntax-ns#"
   xmlns:svg="http://www.w3.org/2000/svg"
   xmlns="http://www.w3.org/2000/svg"
   xmlns:sodipodi="http://sodipodi.sourceforge.net/DTD/sodipodi-0.dtd"
   xmlns:inkscape="http://www.inkscape.org/namespaces/inkscape"
   inkscape:version="1.0beta2 (2b71d25, 2019-12-03)"
   sodipodi:docname="charity_icon_6.svg"
   id="svg3143"
   version="1.1"
   viewBox="0 0 22.219729 17.012251"
   height="64.298271"
   width="83.98008">
  <defs
     id="defs3137" />
  <sodipodi:namedview
     inkscape:window-maximized="0"
     inkscape:window-y="23"
     inkscape:window-x="44"
     inkscape:window-height="855"
     inkscape:window-width="1440"
     units="px"
     showgrid="false"
     inkscape:document-rotation="0"
     inkscape:current-layer="layer1"
     inkscape:document-units="mm"
     inkscape:cy="71.178239"
     inkscape:cx="191.30703"
     inkscape:zoom="0.98994949"
     inkscape:pageshadow="2"
     inkscape:pageopacity="0.0"
     borderopacity="1.0"
     bordercolor="#666666"
     pagecolor="#ffffff"
     id="base" />
  <metadata
     id="metadata3140">
    <rdf:RDF>
      <cc:Work
         rdf:about="">
        <dc:format>image/svg+xml</dc:format>
        <dc:type
           rdf:resource="http://purl.org/dc/dcmitype/StillImage" />
        <dc:title></dc:title>
      </cc:Work>
    </rdf:RDF>
  </metadata>
  <g
     transform="translate(-41.9685,-11.141952)"
     id="layer1"
     inkscape:groupmode="layer"
     inkscape:label="Layer 1">
    <path
       d="m 61.734477,17.935631 c -2.164434,0 -3.046236,1.736655 -3.046236,1.736655 0,0 -0.881804,-1.736655 -3.046236,-1.736655 -2.164504,0 -2.930314,2.652819 -2.164504,4.452409 1.202478,2.825608 5.21074,4.623717 5.21074,4.623717 0,0 4.00819,-1.798109 5.210668,-4.623717 0.76588,-1.79959 0,-4.452409 -2.164432,-4.452409"
       style="fill:#96aa66;fill-opacity:1;fill-rule:nonzero;stroke:none;stroke-width:0.00705555"
       id="path2562"
       inkscape:connector-curvature="0" />
    <path
       d="m 50.474656,27.482856 c -0.08876,0 -0.493888,-0.360609 -0.855556,-2.124851 -0.104493,-0.509975 -0.192899,-1.077877 -0.264724,-1.687477 0.372392,-0.01616 0.746125,-0.02483 1.12028,-0.02483 0.374157,0 0.74789,0.0087 1.120282,0.02483 -0.0719,0.6096 -0.160302,1.177502 -0.264795,1.687477 -0.361668,1.764242 -0.766798,2.124851 -0.855487,2.124851 z m -3.190945,-2.230543 c -0.24384,-0.404918 -0.456777,-0.847655 -0.639304,-1.318754 0.668091,-0.101811 1.349869,-0.177024 2.038774,-0.224931 0.07493,0.644595 0.167922,1.245235 0.278341,1.784209 0.159244,0.776746 0.342547,1.380066 0.552239,1.814618 -0.831004,-0.306987 -1.601047,-1.010355 -2.23005,-2.055142 z m 0.522535,1.762407 c -0.03782,-0.01369 -0.07543,-0.02815 -0.11303,-0.0424 -1.364757,-0.519994 -2.547762,-1.410899 -3.425473,-2.549031 0.551533,-0.145909 1.120564,-0.271286 1.70173,-0.376978 0.206798,0.556189 0.45339,1.077595 0.73914,1.552222 0.340783,0.565997 0.722277,1.044646 1.134463,1.429174 -0.01221,-0.0044 -0.02455,-0.0085 -0.03683,-0.01298 z m -5.158811,-7.031072 h 2.577183 c 0.02843,1.203043 0.209973,2.361988 0.528461,3.417075 -0.644878,0.120792 -1.276915,0.267335 -1.894911,0.438927 -0.714798,-1.124374 -1.150831,-2.442281 -1.210733,-3.856002 z m 1.210733,-4.527268 c 0.617996,0.171591 1.250033,0.318135 1.894911,0.438926 -0.318488,1.055088 -0.500027,2.214033 -0.528461,3.417076 h -2.577183 c 0.0599,-1.413721 0.495935,-2.731629 1.210733,-3.856002 z m 3.838152,-3.133796 c 0.03634,-0.01383 0.07267,-0.0278 0.109291,-0.04106 0.01242,-0.0045 0.02498,-0.0087 0.03747,-0.01319 -0.412186,0.384528 -0.79368,0.863177 -1.134463,1.429173 -0.28575,0.474628 -0.532342,0.996033 -0.73914,1.552223 -0.581166,-0.105693 -1.150197,-0.23107 -1.70173,-0.376979 0.878346,-1.138978 2.06248,-2.030306 3.428577,-2.55016 z m 0.917011,10.715766 c -0.744785,0.05143 -1.476869,0.134126 -2.194419,0.247509 -0.314466,-1.012754 -0.494171,-2.133882 -0.523099,-3.302211 h 2.570056 c 0.0087,1.068493 0.0592,2.101144 0.147462,3.054702 z m -0.147462,-3.725968 h -2.570056 c 0.02893,-1.168329 0.208633,-2.289457 0.523099,-3.302212 0.71755,0.113383 1.449634,0.196074 2.194419,0.247509 -0.08826,0.953559 -0.138783,1.98621 -0.147462,3.054703 z m 1.047892,-7.323808 c -0.209692,0.434552 -0.392995,1.037873 -0.552239,1.814619 -0.110419,0.538974 -0.203411,1.139613 -0.278341,1.784209 -0.688905,-0.04791 -1.370683,-0.12312 -2.038774,-0.224932 0.182527,-0.471099 0.395464,-0.913835 0.639304,-1.318753 0.629003,-1.044787 1.399046,-1.748155 2.23005,-2.055143 z m 0.960895,-0.175401 c 0.08869,0 0.493819,0.36061 0.855487,2.124851 0.104493,0.509976 0.192898,1.077878 0.264795,1.687478 -0.372392,0.01616 -0.746125,0.02484 -1.120282,0.02484 -0.374155,0 -0.747888,-0.0087 -1.12028,-0.02484 0.07182,-0.6096 0.160231,-1.177502 0.264724,-1.687478 0.361668,-1.764241 0.766798,-2.124851 0.855556,-2.124851 z m 3.190945,2.230544 c 0.24384,0.404918 0.456778,0.847654 0.639304,1.318753 -0.66816,0.101812 -1.349868,0.177024 -2.038772,0.224932 -0.075,-0.644596 -0.167922,-1.245235 -0.278342,-1.784209 -0.159244,-0.776746 -0.342618,-1.380138 -0.552238,-1.814619 0.830933,0.306988 1.601046,1.010356 2.230048,2.055143 z m -0.52204,-1.762196 c 0.03683,0.01334 0.07331,0.02731 0.109855,0.0412 1.365885,0.519854 2.549879,1.411112 3.428083,2.550019 -0.551462,0.145909 -1.120492,0.271286 -1.701658,0.376979 -0.2068,-0.55619 -0.45339,-1.077595 -0.73914,-1.552223 -0.340784,-0.565996 -0.722278,-1.044645 -1.134463,-1.429173 0.01242,0.0044 0.02498,0.0087 0.03732,0.01319 z m -4.006497,7.030861 c 0.0088,-1.057839 0.05898,-2.078214 0.146685,-3.017379 0.393912,0.01715 0.790717,0.0266 1.190907,0.0266 0.400192,0 0.796996,-0.0095 1.190908,-0.0266 0.08763,0.939165 0.137865,1.95954 0.146614,3.017379 z m 2.5285,3.688644 c -0.393912,-0.01715 -0.790716,-0.0266 -1.190908,-0.0266 -0.40019,0 -0.796995,0.0095 -1.190907,0.0266 -0.0877,-0.939165 -0.137865,-1.959539 -0.146685,-3.017378 h 2.675114 c -0.0087,1.057839 -0.05898,2.078213 -0.146614,3.017378 z m 3.621333,2.823845 c -0.611928,0.477732 -1.29561,0.867552 -2.032987,1.148292 -0.03676,0.0139 -0.07338,0.02801 -0.110349,0.04134 -0.01242,0.0045 -0.02491,0.0087 -0.03732,0.01319 0.412185,-0.384528 0.793679,-0.863176 1.134463,-1.429173 0.09059,-0.150425 0.176812,-0.306141 0.259502,-0.465596 -0.169616,-0.163337 -0.335068,-0.333657 -0.494312,-0.510611 -0.105904,0.218511 -0.219216,0.428978 -0.34029,0.629991 -0.629002,1.044786 -1.399115,1.748155 -2.230048,2.055142 0.20962,-0.434481 0.392994,-1.037872 0.552238,-1.814619 0.11042,-0.538973 0.203341,-1.139613 0.278342,-1.784208 0.366747,0.02554 0.731167,0.05934 1.092905,0.100188 -0.160655,-0.232127 -0.307128,-0.473286 -0.436104,-0.722912 -0.194804,-0.01792 -0.390383,-0.03394 -0.587022,-0.04755 0.0429,-0.462844 0.07662,-0.944598 0.101247,-1.439756 -0.111266,-0.773642 -0.02999,-1.578328 0.233892,-2.286212 h -0.187607 c -0.0087,-1.068493 -0.05927,-2.101144 -0.147532,-3.054703 0.744855,-0.05143 1.476939,-0.134126 2.194489,-0.247509 0.122344,0.393983 0.22359,0.804757 0.304236,1.22802 0.212724,-0.05567 0.434692,-0.08862 0.66421,-0.09835 -0.08065,-0.427567 -0.18161,-0.843633 -0.302612,-1.24453 0.644876,-0.120791 1.276914,-0.267335 1.89491,-0.438926 0.469052,0.73787 0.817104,1.559419 1.01854,2.436424 0.223096,0.155787 0.416136,0.32131 0.578556,0.482671 0.0532,-0.05292 0.110772,-0.106257 0.17039,-0.159597 -0.204964,-1.203254 -0.662234,-2.32163 -1.3172,-3.297202 -0.0069,-0.01404 -0.01446,-0.02787 -0.02343,-0.04099 -0.965128,-1.422329 -2.317184,-2.495268 -3.863198,-3.118555 -0.02921,-0.01185 -0.05842,-0.02378 -0.08784,-0.03528 -0.03443,-0.01341 -0.069,-0.02646 -0.103575,-0.03944 -0.04452,-0.01679 -0.08918,-0.03316 -0.133985,-0.04918 -0.02582,-0.0092 -0.05165,-0.01841 -0.07754,-0.02738 -0.06279,-0.02173 -0.125871,-0.04269 -0.189301,-0.06301 -0.0099,-0.0032 -0.0199,-0.0066 -0.02984,-0.0097 -0.160725,-0.05073 -0.323567,-0.09673 -0.488173,-0.138078 -0.0017,-4.2e-4 -0.0034,-7.8e-4 -0.0051,-0.0012 -0.0793,-0.0199 -0.159174,-0.03852 -0.239395,-0.05609 -0.0061,-0.0013 -0.01214,-0.0027 -0.0182,-0.004 -0.08008,-0.01736 -0.160655,-0.03373 -0.241582,-0.0489 -0.0016,-2.8e-4 -0.0033,-6.4e-4 -0.005,-9.2e-4 -0.168981,-0.03147 -0.339725,-0.05814 -0.512092,-0.07938 -7.8e-4,-1.42e-4 -0.0016,-2.2e-4 -0.0024,-2.8e-4 -0.07853,-0.0097 -0.157549,-0.01813 -0.236712,-0.02568 -0.01849,-0.0018 -0.03697,-0.0032 -0.05546,-0.0049 -0.0623,-0.0054 -0.124672,-0.0103 -0.187254,-0.01446 -0.02378,-0.0016 -0.04756,-0.0031 -0.07133,-0.0045 -0.06011,-0.0035 -0.120368,-0.0061 -0.180763,-0.0084 -0.02293,-8.4e-4 -0.04586,-0.0019 -0.06879,-0.0026 -0.0817,-0.0023 -0.163548,-0.0038 -0.245816,-0.0038 -0.08227,0 -0.164112,0.0015 -0.245815,0.0038 -0.02293,7e-4 -0.04586,0.0018 -0.06879,0.0026 -0.06039,0.0023 -0.12065,0.0049 -0.180763,0.0084 -0.02378,0.0014 -0.04756,0.003 -0.07133,0.0045 -0.06258,0.0042 -0.124953,0.009 -0.187254,0.01446 -0.01849,0.0017 -0.03697,0.0032 -0.05546,0.0049 -0.07923,0.0076 -0.158185,0.01602 -0.236855,0.02568 -7e-4,7.1e-5 -0.0015,1.42e-4 -0.0023,2.8e-4 -0.172368,0.02124 -0.343112,0.04791 -0.512163,0.07938 -0.0016,2.8e-4 -0.0033,6.4e-4 -0.0049,9.2e-4 -0.081,0.01517 -0.161502,0.03154 -0.241583,0.04889 -0.0061,0.0013 -0.01214,0.0027 -0.0182,0.004 -0.08022,0.01757 -0.16009,0.0362 -0.239465,0.05609 -0.0016,4.2e-4 -0.0033,7.8e-4 -0.005,0.0012 -0.164606,0.04135 -0.327448,0.08728 -0.488103,0.138077 -0.01009,0.0032 -0.02004,0.0066 -0.03013,0.0098 -0.06336,0.02025 -0.126365,0.0412 -0.189019,0.06294 -0.02596,0.009 -0.05179,0.0182 -0.07761,0.02738 -0.04487,0.01602 -0.08946,0.03238 -0.133985,0.04918 -0.03457,0.01298 -0.06914,0.02604 -0.103575,0.03944 -0.02935,0.0115 -0.05856,0.02342 -0.08777,0.03528 -1.54601,0.623287 -2.898136,1.696225 -3.863266,3.118555 -0.009,0.01312 -0.01651,0.02695 -0.02342,0.04099 -0.908613,1.353255 -1.439402,2.980408 -1.439402,4.729338 0,1.748861 0.530789,3.376013 1.439404,4.729269 0.0069,0.01411 0.01446,0.02794 0.02342,0.04106 0.964918,1.422047 2.316692,2.494845 3.862282,3.118203 0.0297,0.01199 0.05934,0.02413 0.08925,0.03584 0.03408,0.01326 0.0683,0.02618 0.102588,0.03909 0.0448,0.01686 0.08975,0.0333 0.134902,0.04946 0.02554,0.0091 0.05115,0.01827 0.07684,0.02709 0.06315,0.02187 0.126577,0.04297 0.19036,0.06336 0.0097,0.0031 0.01919,0.0064 0.02893,0.0095 0.160796,0.0508 0.323709,0.0968 0.488527,0.138148 0.0015,4.2e-4 0.003,7.8e-4 0.0046,0.0011 0.07944,0.0199 0.159455,0.03859 0.239818,0.05623 0.006,0.0013 0.01199,0.0026 0.01799,0.0039 0.08029,0.0175 0.160937,0.03387 0.242077,0.04904 0.0014,2.6e-4 0.0029,5.6e-4 0.0044,8.4e-4 0.169121,0.03147 0.339936,0.05814 0.512374,0.07937 6.4e-4,1.59e-4 0.0013,2.2e-4 0.002,2.6e-4 0.07874,0.0097 0.157833,0.01813 0.237138,0.02568 0.01842,0.0018 0.0369,0.0032 0.05532,0.0049 0.0623,0.0055 0.124742,0.01037 0.187395,0.01453 0.02371,0.0016 0.04748,0.0031 0.07126,0.0045 0.06011,0.0035 0.120368,0.0061 0.180833,0.0084 0.02286,8.4e-4 0.04579,0.0019 0.06872,0.0026 0.0817,0.0023 0.163548,0.0038 0.245815,0.0038 0.08227,0 0.164113,-0.0015 0.245816,-0.0038 0.02293,-7e-4 0.04586,-0.0018 0.06879,-0.0026 0.06039,-0.0023 0.12065,-0.0049 0.180763,-0.0084 0.02378,-0.0014 0.04755,-0.003 0.07133,-0.0045 0.06258,-0.0042 0.124953,-0.009 0.187254,-0.01446 0.01849,-0.0017 0.03697,-0.0032 0.05546,-0.0049 0.07916,-0.0076 0.158186,-0.01602 0.236715,-0.02568 8.4e-4,-5.3e-5 0.0016,-1.59e-4 0.0024,-2.6e-4 0.172367,-0.02124 0.343112,-0.04791 0.512092,-0.07937 0.0017,-2.6e-4 0.0034,-6.4e-4 0.005,-9.2e-4 0.08093,-0.01517 0.161502,-0.03154 0.241582,-0.04889 0.0061,-0.0013 0.01214,-0.0027 0.0182,-0.004 0.08022,-0.01757 0.160091,-0.03619 0.239395,-0.05609 0.0017,-4.2e-4 0.0034,-7.8e-4 0.0051,-0.0012 0.164606,-0.04135 0.327448,-0.08735 0.488174,-0.138077 0.0099,-0.0032 0.0199,-0.0066 0.02985,-0.0097 0.06343,-0.02032 0.126506,-0.04127 0.18923,-0.06301 0.02604,-0.009 0.05186,-0.0182 0.07782,-0.02745 0.04466,-0.01602 0.08918,-0.03231 0.133561,-0.04904 0.03471,-0.01298 0.06929,-0.02604 0.103787,-0.03951 0.02935,-0.0115 0.05849,-0.02342 0.0877,-0.03521 0.787188,-0.317359 1.523718,-0.751911 2.184894,-1.289191 -0.182738,-0.132857 -0.367876,-0.273827 -0.552662,-0.42291"
       style="fill:#96aa66;fill-opacity:1;fill-rule:nonzero;stroke:none;stroke-width:0.00705555"
       id="path2564"
       inkscape:connector-curvature="0" />
  </g>
</svg>
